<svg xmlns="http://www.w3.org/2000/svg" width="245.19" height="130.56" viewBox="0 0 245.19 130.56">
  <g id="Group_89" data-name="Group 89" transform="translate(-837 -5641.44)">
    <g id="google-logo" transform="translate(836.89 5641.44)">
      <path id="Path_458" data-name="Path 458" d="M30.734,27.471v8.251H50.456c-.6,4.629-2.147,8.016-4.495,10.4C43.077,49,38.582,52.157,30.734,52.157A21.647,21.647,0,0,1,9.1,30.221,21.647,21.647,0,0,1,30.734,8.285a20.971,20.971,0,0,1,14.859,5.9l5.8-5.8A28.489,28.489,0,0,0,30.734,0C14.1,0,.11,13.551.11,30.188S14.1,60.375,30.734,60.375c8.989,0,15.765-2.952,21.064-8.452,5.434-5.434,7.144-13.115,7.144-19.286a26.513,26.513,0,0,0-.436-5.165Z" transform="translate(0)" fill="#4285f4"/>
      <path id="Path_459" data-name="Path 459" d="M38.725,6.19A19.2,19.2,0,0,0,19.17,25.678,19.265,19.265,0,0,0,38.725,45.165,19.245,19.245,0,0,0,58.28,25.678,19.2,19.2,0,0,0,38.725,6.19Zm0,31.294c-5.9,0-11-4.864-11-11.807,0-7.01,5.1-11.807,11-11.807s11,4.8,11,11.807C49.726,32.621,44.628,37.484,38.725,37.484Z" transform="translate(44.87 14.572)" fill="#ea4335"/>
      <path id="Path_460" data-name="Path 460" d="M73.779,10.55h-.3A13.508,13.508,0,0,0,63.213,6.19C53.486,6.19,45,14.676,45,25.678c0,10.935,8.486,19.488,18.213,19.488a13.309,13.309,0,0,0,10.264-4.428h.3v2.717c0,7.446-3.991,11.438-10.4,11.438-5.233,0-8.486-3.757-9.828-6.943l-7.446,3.086a18.563,18.563,0,0,0,17.274,11.5c10.029,0,18.515-5.9,18.515-20.293V7.2H73.779ZM63.951,37.484c-5.9,0-10.4-5.031-10.4-11.807,0-6.876,4.495-11.807,10.4-11.807,5.836,0,10.4,5.031,10.4,11.874C74.382,32.554,69.787,37.484,63.951,37.484Z" transform="translate(105.679 14.572)" fill="#4285f4"/>
      <path id="Path_461" data-name="Path 461" d="M51.725,6.19A19.2,19.2,0,0,0,32.17,25.678,19.265,19.265,0,0,0,51.725,45.165,19.245,19.245,0,0,0,71.28,25.678,19.2,19.2,0,0,0,51.725,6.19Zm0,31.294c-5.9,0-11-4.864-11-11.807,0-7.01,5.1-11.807,11-11.807s11,4.8,11,11.807C62.726,32.621,57.628,37.484,51.725,37.484Z" transform="translate(75.475 14.572)" fill="#fbbc05"/>
      <path id="Path_462" data-name="Path 462" d="M58,.24h8.419V59.173H58Z" transform="translate(136.283 0.565)" fill="#34a853"/>
      <path id="Path_463" data-name="Path 463" d="M81.82,37.484a9.92,9.92,0,0,1-9.459-5.9L98.423,20.814,97.551,18.6c-1.61-4.36-6.574-12.41-16.67-12.41C70.852,6.19,62.5,14.072,62.5,25.678A19.05,19.05,0,0,0,81.82,45.165a19.442,19.442,0,0,0,16.234-8.62l-6.641-4.427c-2.214,3.22-5.232,5.367-9.593,5.367Zm-.6-23.982c3.455,0,6.406,1.778,7.379,4.293L70.986,25.074C70.986,16.89,76.789,13.5,81.216,13.5Z" transform="translate(146.877 14.572)" fill="#ea4335"/>
    </g>
    <g id="Group_88" data-name="Group 88" transform="translate(-6)">
      <g id="Group_87" data-name="Group 87" transform="translate(20 28)">
        <path id="signs" d="M3.987,11.57l-.906,5.845A.542.542,0,0,0,3.87,18l4.714-2.741L13.3,18a.542.542,0,0,0,.789-.585l-.906-5.845,3.834-4.134a.573.573,0,0,0-.3-.952l-5.277-.848L9.068.335a.545.545,0,0,0-.971,0l-2.365,5.3L.456,6.484a.572.572,0,0,0-.3.952Z" transform="translate(960 5712.961)" fill="#f6ad01"/>
        <path id="signs-2" data-name="signs" d="M3.987,11.57l-.906,5.845A.542.542,0,0,0,3.87,18l4.714-2.741L13.3,18a.542.542,0,0,0,.789-.585l-.906-5.845,3.834-4.134a.573.573,0,0,0-.3-.952l-5.277-.848L9.068.335a.545.545,0,0,0-.971,0l-2.365,5.3L.456,6.484a.572.572,0,0,0-.3.952Z" transform="translate(981.256 5712.961)" fill="#f6ad01"/>
        <path id="signs-3" data-name="signs" d="M3.987,11.57l-.906,5.845A.542.542,0,0,0,3.87,18l4.714-2.741L13.3,18a.542.542,0,0,0,.789-.585l-.906-5.845,3.834-4.134a.573.573,0,0,0-.3-.952l-5.277-.848L9.068.335a.545.545,0,0,0-.971,0l-2.365,5.3L.456,6.484a.572.572,0,0,0-.3.952Z" transform="translate(1002.511 5712.961)" fill="#f6ad01"/>
        <path id="signs-4" data-name="signs" d="M3.987,11.57l-.906,5.845A.542.542,0,0,0,3.87,18l4.714-2.741L13.3,18a.542.542,0,0,0,.789-.585l-.906-5.845,3.834-4.134a.573.573,0,0,0-.3-.952l-5.277-.848L9.068.335a.545.545,0,0,0-.971,0l-2.365,5.3L.456,6.484a.572.572,0,0,0-.3.952Z" transform="translate(1023.767 5712.961)" fill="#f6ad01"/>
        <path id="signs-5" data-name="signs" d="M3.987,11.57l-.906,5.845A.542.542,0,0,0,3.87,18l4.714-2.741L13.3,18a.542.542,0,0,0,.789-.585l-.906-5.845,3.834-4.134a.573.573,0,0,0-.3-.952l-5.277-.848L9.068.335a.545.545,0,0,0-.971,0l-2.365,5.3L.456,6.484a.572.572,0,0,0-.3.952Z" transform="translate(1045.023 5712.961)" fill="#f6ad01"/>
      </g>
      <text id="Reviews" transform="translate(910 5761)" fill="#979797" font-size="30" font-family="Poppins-Regular, Poppins"><tspan x="-59.91" y="0">Reviews</tspan></text>
    </g>
  </g>
</svg>
